<svg width="960" height="620" viewBox="0 0 960 620" fill="none" xmlns="http://www.w3.org/2000/svg">
  <defs>
    <linearGradient id="bg" x1="90" y1="60" x2="860" y2="560" gradientUnits="userSpaceOnUse">
      <stop stop-color="#EBFFF8"/>
      <stop offset="1" stop-color="#E4EFF7"/>
    </linearGradient>
    <linearGradient id="card" x1="230" y1="120" x2="760" y2="500" gradientUnits="userSpaceOnUse">
      <stop stop-color="white" stop-opacity="0.95"/>
      <stop offset="1" stop-color="#F3F8FB" stop-opacity="0.95"/>
    </linearGradient>
    <linearGradient id="accent" x1="118" y1="110" x2="816" y2="470" gradientUnits="userSpaceOnUse">
      <stop stop-color="#0F9C8C"/>
      <stop offset="1" stop-color="#0B4F8A"/>
    </linearGradient>
    <filter id="shadow" x="145" y="77" width="660" height="471" filterUnits="userSpaceOnUse" color-interpolation-filters="sRGB">
      <feFlood flood-opacity="0" result="BackgroundImageFix"/>
      <feColorMatrix in="SourceAlpha" type="matrix" values="0 0 0 0 0 0 0 0 0 0 0 0 0 0 0 0 0 0 127 0" result="hardAlpha"/>
      <feOffset dy="20"/>
      <feGaussianBlur stdDeviation="25"/>
      <feColorMatrix type="matrix" values="0 0 0 0 0.05 0 0 0 0 0.17 0 0 0 0 0.23 0 0 0 0.14 0"/>
      <feBlend mode="normal" in2="BackgroundImageFix" result="effect1_dropShadow_hero"/>
      <feBlend mode="normal" in="SourceGraphic" in2="effect1_dropShadow_hero" result="shape"/>
    </filter>
  </defs>
  <rect width="960" height="620" rx="36" fill="url(#bg)"/>
  <circle cx="132" cy="108" r="68" fill="#1FA28B" fill-opacity="0.14"/>
  <circle cx="838" cy="504" r="96" fill="#2B6FAB" fill-opacity="0.12"/>
  <g filter="url(#shadow)">
    <rect x="195" y="107" width="560" height="371" rx="30" fill="url(#card)"/>
  </g>
  <rect x="229" y="141" width="216" height="150" rx="22" fill="#0B2230"/>
  <path d="M257 221H294L322 166L361 257L392 195H417" stroke="#7FF0D5" stroke-width="12" stroke-linecap="round" stroke-linejoin="round"/>
  <text x="257" y="194" fill="white" font-size="26" font-family="Arial, Helvetica, sans-serif" font-weight="700">Live Patient</text>
  <rect x="475" y="141" width="246" height="110" rx="22" fill="#F4FBFF"/>
  <rect x="503" y="168" width="56" height="56" rx="16" fill="url(#accent)"/>
  <path d="M520 196H542" stroke="white" stroke-width="8" stroke-linecap="round"/>
  <path d="M531 185V207" stroke="white" stroke-width="8" stroke-linecap="round"/>
  <circle cx="614" cy="191" r="14" fill="#0F9C8C" fill-opacity="0.18"/>
  <circle cx="650" cy="191" r="14" fill="#D58A00" fill-opacity="0.18"/>
  <circle cx="686" cy="191" r="14" fill="#C9402D" fill-opacity="0.18"/>
  <text x="579" y="179" fill="#0F2430" font-size="16" font-family="Arial, Helvetica, sans-serif" font-weight="700">AI Risk Triage</text>
  <text x="579" y="205" fill="#4F646E" font-size="14" font-family="Arial, Helvetica, sans-serif">Model + alert workflow</text>
  <rect x="475" y="273" width="246" height="171" rx="22" fill="#F9FCFE"/>
  <text x="503" y="311" fill="#0F2430" font-size="18" font-family="Arial, Helvetica, sans-serif" font-weight="700">Top Risk Factors</text>
  <rect x="503" y="330" width="154" height="16" rx="8" fill="#C9402D" fill-opacity="0.85"/>
  <rect x="503" y="362" width="131" height="16" rx="8" fill="#D58A00" fill-opacity="0.82"/>
  <rect x="503" y="394" width="178" height="16" rx="8" fill="#0F9C8C" fill-opacity="0.82"/>
  <text x="667" y="343" fill="#0F2430" font-size="13" font-family="Arial, Helvetica, sans-serif">Oxygen</text>
  <text x="644" y="375" fill="#0F2430" font-size="13" font-family="Arial, Helvetica, sans-serif">Sepsis</text>
  <text x="691" y="407" fill="#0F2430" font-size="13" font-family="Arial, Helvetica, sans-serif">Heart Rate</text>
  <circle cx="329" cy="383" r="86" fill="#DBF7F1"/>
  <circle cx="329" cy="350" r="32" fill="#0E6F83"/>
  <path d="M277 450C286 410 308 392 329 392C350 392 372 410 381 450" fill="#0E6F83"/>
  <rect x="255" y="301" width="149" height="14" rx="7" fill="#0F9C8C" fill-opacity="0.2"/>
  <rect x="255" y="470" width="149" height="14" rx="7" fill="#0B4F8A" fill-opacity="0.12"/>
  <path d="M158 305C194 305 222 277 222 241" stroke="#0F9C8C" stroke-width="8" stroke-linecap="round"/>
  <circle cx="158" cy="305" r="12" fill="#0F9C8C"/>
  <circle cx="222" cy="241" r="12" fill="#0F9C8C"/>
  <path d="M735 389C792 389 822 356 838 320" stroke="#0B4F8A" stroke-width="8" stroke-linecap="round"/>
  <circle cx="735" cy="389" r="12" fill="#0B4F8A"/>
  <circle cx="838" cy="320" r="12" fill="#0B4F8A"/>
  <text x="250" y="526" fill="#0F2430" font-size="24" font-family="Arial, Helvetica, sans-serif" font-weight="700">AI-assisted patient monitoring, risk scoring, and explanation</text>
</svg>
