<svg width="420" height="260" viewBox="0 0 420 260" fill="none" xmlns="http://www.w3.org/2000/svg">
  <defs>
    <linearGradient id="xaiBg" x1="32" y1="26" x2="382" y2="244" gradientUnits="userSpaceOnUse">
      <stop stop-color="#FFF6E8"/>
      <stop offset="1" stop-color="#F3F7FF"/>
    </linearGradient>
  </defs>
  <rect width="420" height="260" rx="24" fill="url(#xaiBg)"/>
  <rect x="40" y="40" width="150" height="180" rx="22" fill="white"/>
  <text x="62" y="75" fill="#0F2430" font-size="18" font-family="Arial, Helvetica, sans-serif" font-weight="700">Top Factors</text>
  <rect x="62" y="96" width="92" height="14" rx="7" fill="#C9402D"/>
  <rect x="62" y="126" width="75" height="14" rx="7" fill="#D58A00"/>
  <rect x="62" y="156" width="113" height="14" rx="7" fill="#0F9C8C"/>
  <text x="62" y="93" fill="#4F646E" font-size="11" font-family="Arial, Helvetica, sans-serif">Oxygen</text>
  <text x="62" y="123" fill="#4F646E" font-size="11" font-family="Arial, Helvetica, sans-serif">Sepsis</text>
  <text x="62" y="153" fill="#4F646E" font-size="11" font-family="Arial, Helvetica, sans-serif">Heart Rate</text>
  <circle cx="300" cy="110" r="56" fill="#E6F5FF"/>
  <path d="M277 94C277 81 287 71 300 71C313 71 323 81 323 94C323 103 318 111 310 116V126H290V116C282 111 277 103 277 94Z" fill="#0B4F8A"/>
  <rect x="287" y="128" width="26" height="10" rx="5" fill="#0F9C8C"/>
  <circle cx="260" cy="168" r="12" fill="#0F9C8C"/>
  <circle cx="336" cy="168" r="12" fill="#D58A00"/>
  <circle cx="300" cy="206" r="12" fill="#C9402D"/>
  <path d="M267 159L289 132" stroke="#0B4F8A" stroke-width="5" stroke-linecap="round"/>
  <path d="M329 159L311 136" stroke="#0B4F8A" stroke-width="5" stroke-linecap="round"/>
  <path d="M300 194V141" stroke="#0B4F8A" stroke-width="5" stroke-linecap="round"/>
  <text x="228" y="245" fill="#0F2430" font-size="16" font-family="Arial, Helvetica, sans-serif" font-weight="700">Explainable AI output</text>
</svg>
