<svg width="420" height="260" viewBox="0 0 420 260" fill="none" xmlns="http://www.w3.org/2000/svg">
  <defs>
    <linearGradient id="govBg" x1="38" y1="28" x2="384" y2="238" gradientUnits="userSpaceOnUse">
      <stop stop-color="#EEF8F6"/>
      <stop offset="1" stop-color="#EEF2FF"/>
    </linearGradient>
    <linearGradient id="shieldGrad" x1="160" y1="64" x2="255" y2="179" gradientUnits="userSpaceOnUse">
      <stop stop-color="#0F9C8C"/>
      <stop offset="1" stop-color="#0B4F8A"/>
    </linearGradient>
  </defs>
  <rect width="420" height="260" rx="24" fill="url(#govBg)"/>
  <rect x="42" y="54" width="116" height="152" rx="20" fill="white"/>
  <rect x="64" y="82" width="72" height="12" rx="6" fill="#0B4F8A" fill-opacity="0.16"/>
  <rect x="64" y="108" width="58" height="12" rx="6" fill="#0F9C8C" fill-opacity="0.18"/>
  <rect x="64" y="134" width="80" height="12" rx="6" fill="#D58A00" fill-opacity="0.18"/>
  <rect x="64" y="160" width="65" height="12" rx="6" fill="#C9402D" fill-opacity="0.16"/>
  <path d="M208 63L258 84V130C258 168 236 195 208 206C180 195 158 168 158 130V84L208 63Z" fill="url(#shieldGrad)"/>
  <path d="M190 132L202 144L226 115" stroke="white" stroke-width="10" stroke-linecap="round" stroke-linejoin="round"/>
  <rect x="286" y="66" width="94" height="56" rx="18" fill="white"/>
  <text x="309" y="100" fill="#0F2430" font-size="18" font-family="Arial, Helvetica, sans-serif" font-weight="700">Audit</text>
  <rect x="286" y="136" width="94" height="56" rx="18" fill="white"/>
  <text x="299" y="170" fill="#0F2430" font-size="18" font-family="Arial, Helvetica, sans-serif" font-weight="700">Metrics</text>
  <circle cx="343" cy="84" r="7" fill="#0F9C8C"/>
  <circle cx="343" cy="154" r="7" fill="#0B4F8A"/>
</svg>
